Coordinates
version=1
nRows=16
nColumns=33
inDegrees=yes

Units are S.I. units (second, meters, Newtons, ...)
Angles are in degrees.

endheader
time	ground_thorax_rot_x	ground_thorax_rot_y	ground_thorax_rot_z	ground_thorax_tx	ground_thorax_ty	ground_thorax_tz	clav_prot_r	clav_elev_r	scapula_abduction_r	scapula_elevation_r	scapula_upward_rot_r	scapula_winging_r	shoulder_elv_r	plane_of_elev_r	axial_rot_r	elbow_flexion_r	pro_sup_r	wrist_flex_r	wrist_dev_r	clav_prot_l	clav_elev_l	scapula_abduction_l	scapula_elevation_l	scapula_upward_rot_l	scapula_winging_l	shoulder_elv_l	plane_of_elev_l	axial_rot_l	elbow_flexion_l	pro_sup_l	wrist_flex_l	wrist_dev_l
     12.18000000	    -20.67029228	    -35.01431761	     52.66881879	    -25.92519810	    809.54474970	    -40.79376128	     28.74369638	    -45.00000000	     40.63191531	    -45.00000000	    -45.00000000	    975.33685796	   2954.21160749	     21.12347135	   -148.98625982	   2159.28818404	   -196.32754824	     12.13182373	     15.35729867	     -1.46675127	     31.74765803	    -29.36447315	    -45.00000000	    -45.00000000	   3685.89662006	  -3522.77908010	     27.57896598	     54.48349860	   1787.94109088	     38.88499350	     14.86762194	    -15.05091061
     12.19000000	    -20.51032201	    -35.09993904	     52.88117189	    -24.64998351	    808.32516592	    -40.66577057	     28.71110485	    -45.00000000	     40.67005526	    -45.00000000	    -45.00000000	    975.60471560	   2954.23197872	     20.78553254	   -148.86101682	   2159.25741362	   -196.41544837	     11.99558039	     15.40291161	     -1.38627446	     31.71462793	    -29.29889822	    -45.00000000	    -45.00000000	   3685.78165864	  -3522.85378057	     27.47534369	     54.53171209	   1787.94555284	     38.93092266	     14.80533619	    -14.97793257
     12.20000000	    -20.31407738	    -35.14484647	     53.15883571	    -23.41897882	    807.11090960	    -40.53372915	     28.70476190	    -45.00000000	     40.62083314	    -45.00000000	    -45.00000000	    975.57182642	   2954.19796559	     20.72466661	   -148.59197280	   2159.28037936	   -196.53336912	     11.95068727	     15.34169832	     -1.40814685	     31.64466256	    -29.13186514	    -45.00000000	    -45.00000000	   3685.53602117	  -3522.84703165	     27.38554274	     54.43448713	   1787.92992581	     38.97101971	     14.67173197	    -14.87276043
     12.21000000	    -20.21863511	    -35.18226898	     53.31828182	    -22.23224291	    805.90462155	    -40.39602302	     28.79568267	    -45.00000000	     40.48217051	    -45.00000000	    -45.00000000	    975.62380818	   2954.17238397	     20.68492832	   -148.25191961	   2159.33976150	   -196.67404331	     11.86422430	     15.31604753	     -1.42568483	     31.62335516	    -28.97377634	    -45.00000000	    -45.00000000	   3685.46666606	  -3522.88699657	     27.46418850	     54.39722059	   1787.94850941	     38.98862843	     14.65496192	    -14.87456160
     12.22000000	    -20.06402743	    -35.23839927	     53.54262339	    -21.09262461	    804.71244204	    -40.25293786	     28.79637544	    -45.00000000	     40.46741208	    -45.00000000	    -45.00000000	    975.61935656	   2954.08950624	     20.60248165	   -147.94940661	   2159.39048386	   -196.86302861	     11.80489287	     15.28028024	     -1.41723538	     31.55812794	    -28.86442148	    -45.00000000	    -45.00000000	   3685.32491530	  -3522.93844509	     27.37356343	     54.34425844	   1787.99088023	     39.00461848	     14.54138418	    -14.83470257
     12.23000000	    -19.98477758	    -35.29951620	     53.66813914	    -19.99959706	    803.53715516	    -40.10597196	     28.87998720	    -45.00000000	     40.35533672	    -45.00000000	    -45.00000000	    975.68388194	   2954.04198811	     20.55603880	   -147.53226125	   2159.44235815	   -197.05703324	     11.71591607	     15.26801889	     -1.46796315	     31.53714457	    -28.72188594	    -45.00000000	    -45.00000000	   3685.30257128	  -3522.99576210	     27.44068735	     54.31183796	   1788.04986825	     39.01226923	     14.53501101	    -14.88227747
     12.24000000	    -19.79050794	    -35.39950941	     53.88039603	    -18.95549514	    802.38457325	    -39.95813565	     28.85781259	    -45.00000000	     40.40319854	    -45.00000000	    -45.00000000	    975.72715066	   2953.95700120	     20.47530836	   -147.18420802	   2159.57450144	   -197.30121795	     11.67228539	     15.17564130	     -1.41017096	     31.46107749	    -28.62292916	    -45.00000000	    -45.00000000	   3685.11738091	  -3523.08380309	     27.22564803	     54.24338222	   1788.12210618	     39.03105759	     14.33632461	    -14.81607575
     12.25000000	    -19.77106569	    -35.36560078	     53.84632374	    -17.95986188	    801.25620327	    -39.81229492	     29.00235182	    -45.00000000	     40.26179731	    -45.00000000	    -45.00000000	    975.71750416	   2953.98124950	     20.52504864	   -146.73998196	   2159.51900110	   -197.51617549	     11.54457197	     15.26152810	     -1.54703495	     31.46098126	    -28.46433145	    -45.00000000	    -45.00000000	   3685.21297199	  -3523.17833852	     27.56938537	     54.24393920	   1787.97912818	     39.06114169	     14.55297890	    -14.96343886
     12.26000000	    -19.65192915	    -35.32073390	     54.07411219	    -17.01504630	    800.15540832	    -39.67098302	     28.98714025	    -45.00000000	     40.38433742	    -45.00000000	    -45.00000000	    975.62906609	   2953.90621685	     20.31431528	   -146.53037670	   2159.50407016	   -197.85782343	     11.58156462	     15.17850674	     -1.38774244	     31.39336142	    -28.57881649	    -45.00000000	    -45.00000000	   3684.98407059	  -3523.21386539	     27.36986338	     54.25351996	   1787.91712498	     39.11406639	     14.34425108	    -14.82974853
     12.27000000	    -19.59788196	    -35.32422135	     54.14372828	    -16.12404017	    799.08387541	    -39.53548111	     29.01280859	    -45.00000000	     40.22808777	    -45.00000000	    -45.00000000	    975.67828620	   2953.91618650	     20.21017088	   -146.10343052	   2159.55089394	   -198.11236513	     11.52803444	     15.07741847	     -1.59811450	     31.38093715	    -28.41882722	    -45.00000000	    -45.00000000	   3684.85645326	  -3523.22756554	     27.36260524	     54.19902929	   1787.98260244	     39.12733511	     14.27427695	    -14.88655076
     12.28000000	    -19.46091938	    -35.38562318	     54.33076137	    -15.28654702	    798.03790360	    -39.40535398	     29.06035864	    -45.00000000	     40.29824363	    -45.00000000	    -45.00000000	    975.64358181	   2953.82617544	     20.19018761	   -145.76205649	   2159.62011415	   -198.38977617	     11.49168034	     15.06013947	     -1.39642775	     31.30857662	    -28.36646538	    -45.00000000	    -45.00000000	   3684.83360741	  -3523.30437207	     27.33629094	     54.18123207	   1787.99719777	     39.16276643	     14.18698364	    -14.86188728
     12.29000000	    -19.49178865	    -35.36224481	     54.32651722	    -14.50861377	    797.01993892	    -39.28091475	     29.09616924	    -45.00000000	     40.12309576	    -45.00000000	    -45.00000000	    975.72261379	   2953.85360377	     20.09530738	   -145.39560096	   2159.61822595	   -198.63641206	     11.44980080	     14.92769975	     -1.67625586	     31.33454533	    -28.26530231	    -45.00000000	    -45.00000000	   3684.68673114	  -3523.32081205	     27.32580221	     54.07701309	   1788.07278272	     39.17318561	     14.11977917	    -14.94522939
     12.30000000	    -19.30761380	    -35.50945278	     54.56470619	    -13.78986687	    796.02407216	    -39.16173302	     29.09166018	    -45.00000000	     40.20238344	    -45.00000000	    -45.00000000	    975.66059329	   2953.72889606	     20.08443535	   -145.06198682	   2159.74974184	   -198.89314502	     11.42571190	     14.93238815	     -1.29145966	     31.18454301	    -28.14300227	    -45.00000000	    -45.00000000	   3684.75074303	  -3523.38487753	     27.31594999	     54.11119002	   1788.12245730	     39.20580566	     14.01025277	    -14.88953107
     12.31000000	    -19.46593513	    -35.35774503	     54.37170736	    -13.13563706	    795.05063650	    -39.04940629	     29.21271481	    -45.00000000	     39.95961798	    -45.00000000	    -45.00000000	    975.79035217	   2953.81911618	     20.01955333	   -144.66133408	   2159.65988363	   -199.11241031	     11.36562532	     14.72343354	     -1.94630732	     31.38600108	    -28.16714617	    -45.00000000	    -45.00000000	   3684.44059788	  -3523.41511878	     27.20193301	     53.88221120	   1788.19191907	     39.20173432	     13.95792900	    -15.04157654
     12.32000000	    -19.30932019	    -35.35184157	     54.55332924	    -12.55082487	    794.09888186	    -38.94620561	     29.21654283	    -45.00000000	     40.18541917	    -45.00000000	    -45.00000000	    975.61350375	   2953.71913585	     19.98962278	   -144.45121391	   2159.72680797	   -199.43809789	     11.34164365	     14.83130204	     -1.44032758	     31.22069798	    -28.20513897	    -45.00000000	    -45.00000000	   3684.58338035	  -3523.53561772	     27.24926488	     53.92367183	   1788.04383142	     39.27293710	     13.93037652	    -14.92107525
     12.33000000	    -19.29663240	    -35.34394154	     54.59918685	    -12.03970776	    793.16494067	    -38.85519217	     29.16279479	    -45.00000000	     39.99568365	    -45.00000000	    -45.00000000	    975.75885421	   2953.83915007	     19.83006813	   -144.12739587	   2159.67758984	   -199.68321362	     11.37222333	     14.59153324	     -1.69525959	     31.17088157	    -27.96853991	    -45.00000000	    -45.00000000	   3684.38972301	  -3523.43829371	     27.27936887	     53.73208310	   1788.08709242	     39.27713661	     13.84803588	    -15.03540654
